<svg xmlns="http://www.w3.org/2000/svg" width="64" height="64" fill="none"><g fill="#6C63FF" clip-path="url('#clip0')"><path d="M49.2 49.067h-2.133v4.266h-19.2v2.134h19.2v3.2a3.2 3.2 0 0 1-3.2 3.2H20.4a3.21 3.21 0 0 1-2.773-1.6l-1.848 1.066A5.36 5.36 0 0 0 20.4 64h23.467a5.34 5.34 0 0 0 5.333-5.333z"/><path d="M31.067 57.6H33.2v2.133h-2.133zm6.4-28.8v-2.133h-3.254A13.87 13.87 0 0 0 21.467 13.92v-3.254h-2.133v3.254a14 14 0 0 0-2.134.333v-5.72h17.067V6.4H17.2V5.333a3.2 3.2 0 0 1 3.2-3.2h23.467a3.2 3.2 0 0 1 2.116.8l1.411-1.6A5.33 5.33 0 0 0 43.867 0H20.4a5.34 5.34 0 0 0-5.333 5.333v9.6a13.89 13.89 0 0 0-8.48 11.734H3.335V28.8H6.59a13.805 13.805 0 0 0 12.744 12.751V44.8h2.133v-3.249A13.805 13.805 0 0 0 34.21 28.8zm-18.133 8.533v2.085a11.7 11.7 0 0 1-4.267-1.231v-1.92a5.334 5.334 0 0 1 10.666 0v1.92a11.7 11.7 0 0 1-4.266 1.234v-2.088zM17.2 25.6a3.2 3.2 0 1 1 6.4 0 3.2 3.2 0 0 1-6.4 0m11.022 10.88c-.115.107-.238.192-.355.29v-.503a7.47 7.47 0 0 0-4.03-6.622 5.333 5.333 0 1 0-6.873 0 7.47 7.47 0 0 0-4.03 6.622v.508c-.119-.096-.242-.188-.356-.29A11.74 11.74 0 0 1 8.724 28.8H10.8v-2.133H8.721a11.745 11.745 0 0 1 10.613-10.613v2.08h2.133v-2.08a11.745 11.745 0 0 1 10.612 10.613H30V28.8h2.077a11.74 11.74 0 0 1-3.855 7.685z"/><path d="M60.933 19.2c.59 0 1.067-.478 1.067-1.067v-12.8c0-.589-.478-1.066-1.067-1.066H37.467c-.59 0-1.067.477-1.067 1.066v12.8c0 .59.477 1.067 1.067 1.067zm-22.4-12.8h21.334v10.667H38.533z"/><path d="M40.666 8.533h4.267v2.134h-4.267zm6.401 0h10.667v2.134H47.067zM40.666 12.8h17.067v2.133H40.667V12.8zm20.079 8.533a3.38 3.38 0 0 0-2.24.853L49.2 30.39v-9.057h-2.133V32h.308l-6.068 5.355a7.467 7.467 0 0 0-7.04 7.445v1.882a2.77 2.77 0 0 1-1.544 2.497A1.067 1.067 0 0 0 33.2 51.2h7.467a7.467 7.467 0 0 0 7.445-7.04l15.174-17.197a3.388 3.388 0 0 0-2.541-5.63M40.667 49.067h-4.879a4.9 4.9 0 0 0 .612-2.385V44.8a5.34 5.34 0 0 1 4.907-5.316l4.676 4.676a5.34 5.34 0 0 1-5.316 4.907m21.02-23.515L47.018 42.176l-3.728-3.727L59.914 23.78a1.256 1.256 0 0 1 1.772 1.772zM1.2 58.667h23.467c.589 0 1.066-.478 1.066-1.067v-8.533c0-.59-.477-1.067-1.066-1.067H17.2v-5.333h-2.133V48H1.2c-.59 0-1.067.478-1.067 1.067V57.6c0 .59.478 1.067 1.067 1.067m1.067-8.534H23.6v6.4H2.267z"/><path d="M4.4 52.267h5.333V54.4H4.4zm7.467 0h9.6V54.4h-9.6zM1.2 14.933h10.667c.589 0 1.066-.477 1.066-1.066V5.333c0-.589-.477-1.066-1.066-1.066H1.2c-.59 0-1.067.477-1.067 1.066v8.534c0 .589.478 1.066 1.067 1.066M2.267 6.4H10.8v6.4H2.267z"/><path d="M4.4 8.533h4.267v2.134H4.4z"/></g><defs><clipPath id="clip0"><path fill="#fff" d="M0 0h64v64H0z"/></clipPath></defs></svg>