<svg width="64" height="64" fill="none" xmlns="http://www.w3.org/2000/svg"><g clip-path="url('#clip0')" fill="#6C63FF"><path d="M30.979 48.414h2.105v2.105h-2.106v-2.105zm-4.21 0h2.105v2.105h-2.105v-2.105zm-4.21 0h2.105v2.105h-2.105v-2.105zm16.839 0h2.105v2.105h-2.105v-2.105zm-4.21 0h2.105v2.105h-2.105v-2.105zm-4.209 4.21h2.105v2.105h-2.106v-2.105zm-4.21 0h2.105v2.105h-2.105v-2.105zm8.419 0h2.105v2.105h-2.105v-2.105zm-7.368 4.21h8.42v2.105h-8.42v-2.105z"/><path d="M60.448 48.414c-.777 0-1.527.287-2.105.806a3.15 3.15 0 0 0-4.21 0 3.112 3.112 0 0 0-3.158-.617v-3.347c0-.58-.47-1.052-1.052-1.052H4.14a1.579 1.579 0 0 1 0-3.157h10.525a3.695 3.695 0 0 0 3.611-2.947l-2.064-.422a1.579 1.579 0 0 1-1.547 1.264H4.14a3.684 3.684 0 0 0 0 7.367h8.946v2.294a3.113 3.113 0 0 0-3.157.617 3.15 3.15 0 0 0-4.21 0 3.157 3.157 0 0 0-5.262 2.351V63.15H2.56V51.57a1.053 1.053 0 0 1 2.105 0v4.21a1.053 1.053 0 0 0 2.105 0v-4.21a1.053 1.053 0 0 1 2.105 0v4.21a1.053 1.053 0 0 0 2.105 0v-4.21a1.053 1.053 0 0 1 2.105 0v4.21a1.053 1.053 0 0 0 2.105 0v-4.21a1.053 1.053 0 0 1 2.105 0v6.315a1.053 1.053 0 0 0 1.595.902l3.674-2.204a.889.889 0 0 1 1.33.938.912.912 0 0 1-.415.59l-4.028 2.932h-.05v.037l-1.673 1.216L18.969 64l1.169-.852h23.786l1.17.852 1.24-1.703-1.674-1.215v-.038h-.05l-4.063-2.956a.89.89 0 0 1 .947-1.504l3.674 2.204a1.052 1.052 0 0 0 1.598-.902v-6.315a1.053 1.053 0 0 1 2.104 0v4.21a1.053 1.053 0 0 0 2.105 0v-4.21a1.053 1.053 0 0 1 2.105 0v4.21a1.053 1.053 0 0 0 2.105 0v-4.21a1.053 1.053 0 0 1 2.105 0v4.21a1.053 1.053 0 0 0 2.105 0v-4.21a1.053 1.053 0 0 1 2.105 0V63.15h2.105V51.57a3.157 3.157 0 0 0-3.157-3.157zm-12.63 0c-.78.002-1.53.295-2.105.82v-.82h-2.105v2.105h1.246a3.15 3.15 0 0 0-.194 1.052v1.053h-1.052v2.105h1.053v1.298l-2.08-1.248a3.015 3.015 0 0 0-1.078-.392v-1.763h-2.105v2.105h.21a2.956 2.956 0 0 0-1.508 3.206 2.948 2.948 0 0 0 1.24 1.88l1.692 1.229H23.034l1.655-1.204a2.975 2.975 0 0 0-.236-5.111h.21v-2.105h-2.105v1.764a2.98 2.98 0 0 0-1.076.391l-2.08 1.248V54.73h1.052v-2.105H19.4V51.57a3.121 3.121 0 0 0-.193-1.052h1.246v-2.105h-2.105v.82a3.086 3.086 0 0 0-3.158-.63v-2.295h33.68v2.294a3.099 3.099 0 0 0-1.053-.19z"/><path d="M10.981 35.784h15.38l-1.402 4.21h-2.4V42.1h18.944v-2.105h-2.4l-1.402-4.21h15.38a4.21 4.21 0 0 0 4.21-4.21V4.21A4.21 4.21 0 0 0 53.08 0h-42.1a4.21 4.21 0 0 0-4.21 4.21v27.364a4.21 4.21 0 0 0 4.21 4.21zm25.904 4.21h-9.708l1.403-4.21h6.902l1.403 4.21zM8.876 4.21c0-1.163.943-2.105 2.105-2.105h42.1c1.162 0 2.104.942 2.104 2.105v27.364a2.105 2.105 0 0 1-2.105 2.105H10.981a2.105 2.105 0 0 1-2.105-2.105V4.21z"/><path d="M12.034 23.154h39.994c.581 0 1.053-.47 1.053-1.052V5.262c0-.58-.472-1.052-1.053-1.052H12.034c-.581 0-1.053.471-1.053 1.052v16.84c0 .581.472 1.052 1.053 1.052zm1.052-16.84h37.89V21.05h-37.89V6.315z"/><path d="M24.664 8.42h-8.42c-.581 0-1.053.471-1.053 1.052v8.42c0 .581.472 1.053 1.053 1.053h8.42c.58 0 1.052-.472 1.052-1.053v-8.42c0-.58-.471-1.052-1.052-1.052zm-1.053 8.42h-6.315v-6.315h6.315v6.315zm5.262-8.42h4.21v2.105h-4.21V8.42zm7.367 0h11.578v2.105H36.241V8.42zm-7.367 4.21h18.945v2.105H28.874V12.63zm0 4.21h12.63v2.105h-12.63V16.84zm14.735 0h4.21v2.105h-4.21V16.84zM13.086 27.364h37.89v4.21h2.105v-5.262c0-.581-.472-1.053-1.053-1.053H12.034c-.581 0-1.053.472-1.053 1.053v5.262h2.105v-4.21z"/><path d="M24.664 29.47h-8.42c-.581 0-1.053.47-1.053 1.052v1.052h10.525v-1.052c0-.581-.471-1.053-1.052-1.053zm4.209 0h11.578v2.104H28.873V29.47zm13.682 0h5.263v2.104h-5.263V29.47z"/></g><defs><clipPath id="clip0"><path fill="#fff" d="M0 0h64v64H0z"/></clipPath></defs></svg>