<svg xmlns="http://www.w3.org/2000/svg" width="570" height="481" fill="none"><g clip-path="url('#clip0')" opacity=".8"><path fill="#6C63FF" d="M60.654 404.317c15.24 0 27.593-1.895 27.593-4.233s-12.354-4.232-27.593-4.232-27.594 1.895-27.594 4.232 12.354 4.233 27.593 4.233zm397.993 5.759c15.239 0 27.594-1.895 27.594-4.233s-12.355-4.232-27.594-4.232-27.594 1.895-27.594 4.232 12.354 4.233 27.594 4.233m-67.979 39.211c15.24 0 27.594-1.895 27.594-4.232s-12.354-4.233-27.594-4.233-27.594 1.895-27.594 4.233 12.354 4.232 27.594 4.232m-240.601-76.55c15.24 0 27.594-1.895 27.594-4.232s-12.354-4.233-27.594-4.233-27.594 1.895-27.594 4.233 12.354 4.232 27.594 4.232M158.279 481c87.415 0 158.279-15.276 158.279-34.119 0-18.844-70.864-34.119-158.279-34.119S0 428.037 0 446.881C0 465.724 70.864 481 158.279 481M628.03 310.177c-4.273 10.298-9.878 20.169-17.723 27.741-9.558 9.224-21.429 14.257-34.139 16.663-3.747.698-7.53 1.188-11.331 1.466-10.045.773-20.329.26-30.194-.813a357 357 0 0 1-71.117-15.217 350 350 0 0 1-11.331-3.872 345 345 0 0 1-16.843-6.539c-22.662-9.471-46.09-21.548-70.198-17.802-11.684 1.819-22.662 7.331-34.373 8.971a61.5 61.5 0 0 1-24.554-1.746 84.4 84.4 0 0 1-11.331-3.913 129 129 0 0 1-23.542-13.33c-17.663-12.344-33.512-27.648-52.108-38.339-20.503-11.79-43.198-17.396-66.319-21.575a673 673 0 0 0-11.331-1.946c-10.698-1.766-21.422-3.399-31.993-5.332-10.184-1.88-20.549-4.179-29.414-9.831-6.325-4.033-11.644-9.618-16.523-15.504a185 185 0 0 1-23.988-37.472c-9.791-20.088-16.376-41.99-20.415-64.652a211 211 0 0 1-.347-2c-3.8-22.215-5.186-45.183-4.766-67.985l.04-2c.26-11.257.96-22.468 2-33.519.746-7.771 1.746-15.836 5.772-22.368s10.584-10.725 17.116-14.217C67.965-50.331 95.633-54.61 126.68-47.158a563 563 0 0 1 14.917 3.812 1146 1146 0 0 1 11.331 3.113c26.081 7.272 52.095 15.01 79.056 17.33q3.906.34 7.818.52 7.738.36 15.477.16a267.4 267.4 0 0 0 39.618-4.08 310 310 0 0 0 11.331-2.172c16.263-3.393 32.379-7.919 48.236-12.924a943 943 0 0 0 9.704-3.12c7.279-2.38 14.557-4.805 21.849-7.165 21.768-7.058 43.644-13.504 66.179-16.103q2.893-.326 5.785-.58a155 155 0 0 1 5.546-.38c34.959-1.866 70.318 6.566 101.311 23.822a189 189 0 0 1 11.331 6.825 191 191 0 0 1 14.95 10.798c9.891 7.898 19.149 16.89 26.201 27.694 6.872 10.524 11.331 22.341 13.897 34.765q.212 1 .393 2c3.766 20.056 2.593 41.564-1.633 61.66-.447 2.106-.92 4.219-1.413 6.325q-.231 1-.473 2c-4.559 19.002-10.385 37.951-8.865 57.38.193 2.446.5 4.873.9 7.272.113.667.226 1.333.353 2 2.973 15.85 9.731 30.886 13.784 46.583a143.5 143.5 0 0 1-6.232 89.8z" opacity=".1"/><path fill="#6C63FF" d="M576.167 37.157h55.448a71 71 0 0 0-.393-2h-55.055V-38.1a193 193 0 0 0-11.33-6.825v80.082H463.525V-68.747c-1.846.094-3.699.22-5.545.38s-3.859.36-5.785.58V35.157H307.559l-.346-.38 78.803-86.467c-7.292 2.359-14.571 4.785-21.849 7.165l-57.941 63.58v-47.537a334 334 0 0 1-11.331 2.173v47.556L255.277-22.23q-7.737.185-15.476-.16l52.095 57.167-.346.38H152.913v-75.39a1139 1139 0 0 0-11.331-3.113v78.503H14.177l-.04 2h127.459v67.985H18.902c.114.667.227 1.333.347 2h122.347v64.652H39.665q.48 1 .98 2h100.951v66.159q5.678.933 11.33 1.946v-68.105h141.969v141.302a84.4 84.4 0 0 0 11.331 3.913V173.794h145.969v162.344a337 337 0 0 0 11.33 3.873V173.794h101.312v182.247a103 103 0 0 0 11.33-1.467v-180.78h44.311a100 100 0 0 1-.353-2h-43.991v-64.652h51.922q.242-1 .473-2h-52.362zm-11.33 0v67.985H463.525V37.157zm-112.642 67.985H306.226V37.157h145.969zM152.926 37.157h139.97l1.999 1.82v66.165H152.926zm0 134.637v-64.652h141.969v64.652zm153.3 0v-64.652h145.969v64.652zm258.611 0H463.525v-64.652h101.312z" opacity=".1"/><path fill="#6C63FF" d="M516.128-9.66h-.88a2.15 2.15 0 0 0 1.073-1.746c0-1.373-1.686-2.5-3.746-2.5h-26.261c-2.06 0-3.752 1.127-3.752 2.5 0 1.38 1.692 2.506 3.752 2.506h.88a2.15 2.15 0 0 0-1.073 1.747c0 1.173 1.226 2.166 2.866 2.432h-7.572c-2.066 0-3.752 1.127-3.752 2.5s1.686 2.506 3.752 2.506h26.268c2.066 0 3.752-1.127 3.752-2.506 0-1.173-1.226-2.16-2.872-2.426h7.565c2.059 0 3.745-1.127 3.745-2.506 0-1.38-1.686-2.507-3.745-2.507M231.416 14.182h-.88a2.19 2.19 0 0 0 1.073-1.746c0-1.38-1.686-2.507-3.752-2.507h-26.268c-2.066 0-3.752 1.127-3.752 2.507 0 1.373 1.686 2.499 3.752 2.499h.873a2.18 2.18 0 0 0-1.066 1.746c0 1.18 1.226 2.166 2.866 2.433h-7.558c-2.067 0-3.753 1.127-3.753 2.506 0 1.38 1.686 2.5 3.753 2.5h26.267c2.067 0 3.753-1.127 3.753-2.5 0-1.18-1.233-2.166-2.873-2.433h7.565c2.06 0 3.746-1.126 3.746-2.506s-1.686-2.5-3.746-2.5zM556.425 116.2h-.879a2.19 2.19 0 0 0 1.073-1.747c0-1.373-1.687-2.499-3.753-2.499h-26.267c-2.067 0-3.753 1.126-3.753 2.499s1.686 2.5 3.753 2.5h.873a2.17 2.17 0 0 0-1.067 1.746c0 1.173 1.227 2.166 2.866 2.433h-7.565c-2.059 0-3.746 1.126-3.746 2.499s1.687 2.506 3.746 2.506h26.275c2.059 0 3.752-1.126 3.752-2.506 0-1.173-1.233-2.159-2.873-2.426h7.565c2.06 0 3.746-1.126 3.746-2.506s-1.686-2.499-3.746-2.499" opacity=".1"/><path fill="#EAECF0" d="m151.534 331.893 307.113 34.512v9.791l-307.893-35.685zm-.467 36.378h-5.825V223.583l4.192 1.273.047 4.339z"/><path fill="#D3DAE1" d="m153.633 365.938-2.566 2.333-1.586-139.076-.047-4.339h3.033l.04 4.599zm-91.76-3.732 85.002-29.614v2.8l-85.002 29.38z"/><path fill="#EAECF0" d="m63.393 371.531-1.52-6.759 85.002-29.38v5.825zm395.254-157.166v191.211h-4.433l-.226-177.381-.007-5.672z"/><path fill="#D3DAE1" d="M461.906 213.432v190.511l-3.26 1.633V214.365zm-71.238 187.952 63.493-35.486 4.485 2.607-67.978 37.071z"/><path fill="#EAECF0" d="m392.654 413.508-1.986-7.932 67.978-37.071v7.691zm-9.564-168.596.233 201.942h6.299l-.933-204.275z"/><path fill="#D3DAE1" d="M392.654 240.712v204.509l-3.032 1.633-.934-204.275.374-.174z"/><path fill="#EAECF0" d="M61.06 401.617h-5.365l-1.84-180.64-.026-3.113h5.132l.04 3.553z"/><path fill="#D3DAE1" d="m64.786 400.218-3.726 1.399-2.06-180.2-.04-3.553h3.966l.034 3.899z"/><path fill="#000" d="m389.062 242.405 3.593-1.693v7.932l-3.5 1.166zm72.844-28.973v12.124l-3.259 1.093-4.659 1.546-.007-5.672 4.666-8.158z" opacity=".1"/><path fill="#D48A9B" d="M461.906 190.11v33.579l-72.751 24.255-.467-35.912z"/><path fill="#EFC6CD" d="m52.895 187.777 95.612-18.182 313.399 20.515-73.218 21.922z"/><path fill="#000" d="m62.927 217.864.033 3.899-3.96-.346-5.145-.44-.026-3.113zm89.58 11.591-3.026-.26-4.239-.36v-5.252l4.192 1.273h3.033z" opacity=".1"/><path fill="#D48A9B" d="M52.895 187.777v31.254l336.26 28.913-.467-35.912zm266.615 37.159h-43.917v-15.937l43.917 3.093z"/><path fill="#000" d="M319.51 224.936h-43.917v-15.937l43.917 3.093z" opacity=".1"/><path fill="#000" d="M216.593 205.507v25.181l168.596 12.824v-26.814l-65.759-3.733-6.532 5.832-26.814-1.866-9.558-6.999z" opacity=".1"/><path fill="#fff" d="M215.66 204.567v25.188l168.596 12.824v-26.814l-65.759-3.733-6.525 5.832-26.821-1.866-9.558-6.999z"/><path fill="#D48A9B" d="m111.662 197.808 39.872 2.8-.467 12.67h-26.034l-17.416-6.845z"/><path fill="#000" d="m111.662 197.808 39.872 2.8-.467 12.67h-26.034l-17.416-6.845z" opacity=".1"/><path fill="#000" d="M58.494 194.309v22.622l152.973 12.124v-24.021l-59-3.493-6.292 4.659-23.788-1.393-9.791-6.065z" opacity=".1"/><path fill="#fff" d="M57.561 193.376v22.622l152.973 12.124v-24.015l-59-3.499-6.292 4.665-23.788-1.399-9.791-6.066z"/><path fill="#000" d="m64.42 363.892 1.046-.36-.527 7.439-.52.186zm320.789-170.429 21.442 1.406-35.532 10.638-18.096-1.313z" opacity=".1"/><path fill="#fff" d="m385.209 192.53 21.442 1.406-35.532 10.631-18.096-1.306z"/><path fill="#D3DAE1" d="M382.643 194.936c.847-.36 1.746.32 2.666.493.513.1 1.047 0 1.56.1 1.053.14 2.099.846 3.099.486m-8.431-.433c.839-.366 1.746.314 2.666.487.513.1 1.046 0 1.566.1 1.053.14 2.093.846 3.093.486m-9.858.207c.846-.36 1.753.32 2.666.493.513.1 1.046 0 1.566.1 1.053.14 2.093.847 3.093.487"/><path fill="#535461" d="M33.326 428.658a6.259 6.259 0 1 0 0-12.517 6.259 6.259 0 0 0 0 12.517m11.198 24.481a6.258 6.258 0 1 0 0-12.517 6.258 6.258 0 0 0 0 12.517m111.662 4.433a6.26 6.26 0 1 0 0-12.519 6.26 6.26 0 0 0 0 12.519m24.948-31.947a6.258 6.258 0 1 0 0-12.517 6.258 6.258 0 0 0 0 12.517M110.516 311.87h-7.838v48.97h7.838z"/><path fill="#000" d="M110.516 352.908h-7.838v7.932h7.838z" opacity=".1"/><path fill="#3A3768" d="M112.029 354.774h-10.864v54.335h10.864z"/><path fill="#3A3768" d="m179.781 408.756-71.131-2.913v11.444h82.549a12.62 12.62 0 0 0-11.418-8.531m-142.262 0 71.131-2.913v11.444H26.101a12.6 12.6 0 0 1 11.418-8.531"/><path fill="#3A3768" d="m101.165 407.01-56.788 27.993a14.4 14.4 0 0 0-7.998 12.898v.853l66.319-28.914 9.331-.7 55.148 35.212a14.38 14.38 0 0 0-5.939-13.663l-49.209-34.839z"/><path fill="#000" d="M110.516 311.864v5.278a100 100 0 0 1-4.199.087c-1.233 0-2.446 0-3.639-.067v-5.298z" opacity=".1"/><path fill="#3A3768" d="M106.317 315.363c15.972 0 28.92-3.787 28.92-8.458s-12.948-8.459-28.92-8.459-28.92 3.787-28.92 8.459 12.948 8.458 28.92 8.458"/><path fill="#000" d="M134.984 306.905a3.45 3.45 0 0 1-1.233 2.446c-3.573 3.479-14.617 5.998-27.681 5.998-12.777 0-23.608-2.426-27.44-5.778a3.67 3.67 0 0 1-1.487-2.666c0-4.666 12.95-8.458 28.927-8.458s28.914 3.785 28.914 8.458" opacity=".1"/><path fill="#000" d="M135.23 306.905a3.44 3.44 0 0 1-1.233 2.446c-3.679-.92-6.225-1.68-6.225-1.68s-25.494 1.426-48.896 1.913a3.66 3.66 0 0 1-1.486-2.666c0-4.666 12.95-8.458 28.927-8.458s28.913 3.772 28.913 8.445" opacity=".1"/><path fill="#3A3768" d="M33.326 195.502s9.565 26.121 9.098 41.744-7.932 45.004-7.932 45.004-7.458 23.788 11.665 25.888c19.122 2.099 81.615-1.4 81.615-1.4s23.328 6.992 30.78 3.959c2.899-1.173 5.412-3.759 7.398-6.485a13.56 13.56 0 0 0-3.519-19.363 40.4 40.4 0 0 0-11.244-4.825 9 9 0 0 0-2.566-.313l-81.482 1.606s-9.092-1.4-7.459-10.491c1.633-9.092 4.426-37.079 4.426-37.079s.467-34.046-15.857-43.604-14.923 5.359-14.923 5.359"/><path fill="#000" d="M33.326 195.422s9.565 26.115 9.098 41.738-7.932 45.01-7.932 45.01-7.458 23.782 11.665 25.881 81.615-1.406 81.615-1.406 23.328 6.998 30.78 3.999c2.899-1.18 5.412-3.766 7.398-6.485a13.58 13.58 0 0 0 2.401-10.441 13.58 13.58 0 0 0-5.92-8.929 40.8 40.8 0 0 0-11.244-4.825 8.8 8.8 0 0 0-2.566-.307l-81.482 1.58s-9.092-1.4-7.459-10.498 4.426-37.072 4.426-37.072.467-34.046-15.857-43.61-14.923 5.365-14.923 5.365" opacity=".1"/><path fill="#3A3768" d="M35.192 194.569s9.565 26.121 9.098 41.744-7.931 45.004-7.931 45.004-7.459 23.788 11.657 25.888c19.116 2.099 81.616-1.4 81.616-1.4s23.328 6.992 30.786 3.999c2.9-1.18 5.412-3.766 7.399-6.492a13.6 13.6 0 0 0 2.274-4.972 13.58 13.58 0 0 0-1.916-10.537 13.6 13.6 0 0 0-3.878-3.853 40.4 40.4 0 0 0-11.244-4.859 9 9 0 0 0-2.566-.314l-81.482 1.607s-9.091-1.4-7.458-10.491c1.633-9.092 4.425-37.079 4.425-37.079s.467-34.046-15.856-43.604c-16.324-9.558-14.924 5.359-14.924 5.359"/><path fill="#434175" d="M200.65 419.107v8.431s40.277.727 49.149.727 21.082-4.359 21.808-7.852c.727-3.492-10.177-6.398-14.25-6.538-4.072-.14-4.212-1.747-9.451-4.513-2.953-1.559-7.438-6.085-10.784-9.731-2.58-2.813-4.479-5.099-4.479-5.099s-21.669-.433-27.921 3.053c-1.44.806-2.433 2.379-3.113 4.332-2.252 6.512-.959 17.19-.959 17.19"/><path fill="#000" d="M201.609 401.917c4.546-1.579 31.14-2.193 35.513-2.286-2.58-2.813-4.479-5.099-4.479-5.099s-21.669-.433-27.921 3.053c-1.44.806-2.433 2.373-3.113 4.332" opacity=".1"/><path fill="#565387" d="m84.762 267.447 2.346 1.419.88.533 3.419 2.053c18.276 11.018 68.125 40.871 70.858 40.658.713-.06 2.859-.38 5.825-.866.787-.127 1.633-.26 2.52-.414 11.417-1.899 30.393-5.332 32.513-6.278 2.906-1.333 2.326 4.505 1.159 9.451-1.166 4.946-2.033 28.661-.726 31.7s.726 7.998.726 7.998l-1.739 26.608 1.166 5.652s-3.926 3.199-2.326 5.085.147 10.038.147 10.038c4.665-1.746 36.205-2.326 36.205-2.326s-1.333-11.638-.147-14.397c1.187-2.759.294-19.196.294-19.196s.726-12.504-.58-15.41.433-21.522.433-21.522 1.166-11.051 1.453-33.592c.287-22.542-12.797-23.262-12.797-23.262s-1.74-.14-4.393-.393c-5.178-.5-13.817-1.447-19.589-2.666a34 34 0 0 1-3.499-.933c-7.125-2.427-31.113-2.52-35.039-.774-3.779 1.68-7.558.127-7.838 0l-3.053-4.945-29.167 2.486-3.086.267-28.714 2.446-2 .173z"/><path fill="#000" d="M201.67 289.748c8.471 4.133 16.556-10.511 20.322-18.769-5.179-.5-13.817-1.446-19.589-2.666-3.793 6.339-8.858 17.483-.733 21.435" opacity=".1"/><path fill="#EE8E9E" d="M176.222 190.817a8.8 8.8 0 0 0 1.026 2.839c3.133 6.345 12.204 19.409 12.204 19.409a21 21 0 0 1 6.665 6.665c2.473 4.219 3.2 14.104 3.2 14.104s5.525 21.955 8.138 25.014c1.333 1.527.726 2.433-.18 2.96a12.95 12.95 0 0 0-4.586 4.299c-3.812 6.125-9.898 18.289-1.333 22.462 11.631 5.672 22.542-24.055 22.542-24.055s-2.186-21.082-2.766-24.715-4.072-18.616-4.072-18.616-2.473-6.398-3.926-10.904-5.812-9.744-5.812-9.744-7.859-15.704-10.038-18.03c-1.013-1.08-2.433-2.439-3.659-3.586-1.42-1.333-2.593-2.373-2.593-2.373s-14.957 10.791-14.81 14.271"/><path fill="#434175" d="m77.636 417.361 26.461 11.777s34.293.727 40.291-.873c5.999-1.6 4.666-8.285-3.199-9.598s-9.738-4.792-12.357-6.392c-1.767-1.08-8.039-8.058-11.924-12.477-1.873-2.126-3.2-3.666-3.2-3.666s-5.092-13.524-19.195-10.471a14.5 14.5 0 0 0-6.872 3.632c-7.605 7.039-8.265 20.962-8.265 20.962z"/><path fill="#000" d="m87.988 269.399 3.419 2.053c18.276 11.018 68.125 40.872 70.858 40.658.713-.06 2.859-.38 5.825-.866.787-.127 1.633-.26 2.52-.413l.1-.167a33.3 33.3 0 0 0 3.332-8.152c3.053-11.631-12.07-20.502-12.07-20.502l-3.2-2.486c-3.632-6.119-29.806-11.904-29.806-11.904l-3.373-2.3-1.806-1.213-.474-.313-4.092-2.753-20.502 1.453-6.092 3.913-.667.413-2.226 1.46zm-.348 119.894c5.566 19.256 28.814 12.964 28.814 12.964l.44-2.439c-1.873-2.126-3.199-3.666-3.199-3.666s-5.092-13.524-19.196-10.471a14.5 14.5 0 0 0-6.858 3.612z" opacity=".1"/><path fill="#565387" d="M81.562 301.906c8.579 0 30.66 10.324 30.66 10.324 4.506 3.493 10.611 2.326 10.611 2.326s-10.737 10.905-10.437 15.417-6.112 11.924-6.112 11.924l-19.776 39.112c1.46 27.773 29.953 20.068 29.953 20.068l1.167-6.545c1.746-.873 4.366-9.598 4.366-9.598s0-3.486 1.739-4.505c1.74-1.02 5.379-11.491 5.379-11.491s7.852-13.231 7.412-14.97 5.672-10.611 5.672-10.611 10.324-10.178 9.884-11.998 8.305-11.131 8.305-11.131a29.3 29.3 0 0 0 7.719-9.011 33.4 33.4 0 0 0 3.332-8.145c2.46-9.371-6.872-16.949-10.598-19.542a23 23 0 0 0-1.473-.96l-3.199-2.486c-1.653-2.786-7.965-5.506-14.363-7.632-4.613-1.539-9.265-2.779-12.244-3.519-2-.487-3.2-.76-3.2-.76l-3.372-2.266-1.187-.8-1.086-.726-4.099-2.753-9.118.666-11.384.807-6.086 3.919-2.906 1.866-11.364 7.332s-.3 2.793-.393 6.552v.886c-.154 7.552.666 18.25 6.198 18.25"/><path fill="#EE8E9E" d="m125.326 139.048 3.066 10.904s5.386 18.763 5.966 20.069c.579 1.307 14.663 14.544 15.27 14.83.606.287 8.258 4.666 8.258 4.666s.606-23.995 0-30.967c-.05-1.533.077-3.068.38-4.572.926-5.472 3.272-13.49 5.219-19.669 1.626-5.179 2.979-9.058 2.979-9.058s-34.026-1.46-32.86 1.886c.44 1.267.294 3.379-.126 5.499-.707 3.493-2.166 6.985-3.073 6.719a12 12 0 0 0-2.699-.3c-1.24-.054-2.38-.007-2.38-.007"/><path fill="#000" d="M133.491 132.623a25.17 25.17 0 0 0 29.993 1.673c1.626-5.179 2.98-9.058 2.98-9.058s-34.026-1.46-32.86 1.886c.453 1.266.307 3.379-.113 5.499" opacity=".1"/><path fill="#EE8E9E" d="M124.453 112.44a25.165 25.165 0 0 0 15.528 23.251 25.165 25.165 0 0 0 27.422-5.45 25.16 25.16 0 0 0 5.458-27.421 25.16 25.16 0 0 0-23.247-15.534 25.044 25.044 0 0 0-25.161 25.154"/><path fill="#000" d="m125.326 139.048 3.066 10.904s5.386 18.763 5.966 20.069c.579 1.307 14.663 14.544 15.27 14.83.606.287 8.258 4.666 8.258 4.666s.606-23.995 0-30.967c-.05-1.533.077-3.068.38-4.572l-2 8.058.147 16.143 1.159.874-2.612 3.925v-2.912s-9.332-9.012-10.765-12.798-6.665-10.624-6.665-10.624-5.999-9.998-6.105-11.764c-.113-1.333-2.62-4.506-3.719-5.825-1.24-.054-2.38-.007-2.38-.007m50.896 51.769a8.8 8.8 0 0 0 1.026 2.839c3.18-.32 13.997-2.346 16.397-14.717-1.42-1.333-2.593-2.373-2.593-2.373s-14.977 10.771-14.83 14.251M75.33 283.61c2.933-2.08 5.725-4.913 7.392-5.692 2.473-1.167 6.252-4.946 6.252-4.946s.96-.666 2.433-1.52c2.699-1.579 7.125-3.872 10.511-4.152 3.032-.253 13.123-.9 21.055-1.393l10.351-.667s9.451-3.332 13.524-1.166a43 43 0 0 0 9.158 3.333v-.867l-3.053-4.945-32.253 2.752-4.099-2.752-20.502 1.453-6.086 3.919-5.252.446 2.347 1.42-11.365 7.332s-.346 3.252-.413 7.445" opacity=".1"/><path fill="#DFE5EE" d="M71.071 284.896a13.2 13.2 0 0 0 4.26-2.173c2.925-2.073 5.711-4.899 7.37-5.678 2.474-1.167 6.253-4.946 6.253-4.946s7.712-5.239 12.944-5.672c1.426-.12 4.412-.327 7.998-.56l11.871-.76 6.158-.386 5.379-.327s9.451-3.333 13.524-1.166a43 43 0 0 0 9.158 3.332s.146-10.178 1.333-14.397c1.186-4.219 2.759-11.924 2.759-11.924s1.333-10.611 2.62-15.41c1.286-4.799 6.398-31.553 9.018-33.326 2.619-1.773 4.066 1.333 4.066 1.333s17.449-.293 17.742-19.482c0 0-8.145-8.145-8.724-10.178s-8.285-9.598-8.285-9.598-4.366-8.145-9.332-8.291a39 39 0 0 0-6.998.22l-4.199 17.082.146 16.144 1.167.873-2.62 3.926v-2.86s-9.331-9.018-10.757-12.797-6.665-10.631-6.665-10.631-5.959-9.998-6.106-11.764c-.146-1.766-4.219-6.419-4.219-6.419a10.3 10.3 0 0 0-2.473 0 2.7 2.7 0 0 1-1.079-.153 14.6 14.6 0 0 0-7.265-.413c-5.026 1.046-12.664 2.952-14.771 5.239-3.199 3.492-7.851 6.838-13.09 21.375l28.207 10.178-2.413 4.592L91.6 222.536s-.747 1.213-1.753 2.793c-1.333 2.053-3.06 4.739-4.212 6.212-2.033 2.62-1.454 10.904-1.454 10.904s-.433 3.926-1.886 5.386-1.173 6.825-1.173 6.825l-3.779 14.104s-3.493 3.199-3.493 4.665-2.759 5.526-2.759 5.526-4.219 6.958-.02 5.945"/><path fill="#000" d="M89.84 225.329q.293 1.204.447 2.433s11.484 26.901 12.937 28.5c.447.494 2.14 2.913 4.259 5.999l2.433 3.593a4221 4221 0 0 1 9.331 13.937l10.758 9.451s23.408 1.873 30.846-5.726c-.899-.626-1.473-.959-1.473-.959l-3.199-2.486c-1.653-2.787-7.965-5.506-14.363-7.632-5.892.04-10.711.52-10.711.52l-1.533-4.039-1.6-4.213-8.158-21.382s-5.246-27.041-6.992-28.354-1.333-5.378-1.333-5.378 3.199-11.485 2.033-13.084c-1.167-1.6 1.893-13.384 1.893-13.384a12 12 0 0 0-1.4-3.259l-22.448 42.657s-.72 1.206-1.727 2.806" opacity=".1"/><path fill="#EE8E9E" d="M115.728 182.239s-3.053 11.777-1.886 13.377c1.166 1.599-2.04 13.083-2.04 13.083s-.433 4.073 1.333 5.379c1.766 1.307 6.992 28.354 6.992 28.354l11.264 29.667s35.252-3.493 31.62 7.558-32.72 8.725-32.72 8.725l-10.757-9.451s-14.544-21.955-15.997-23.555-12.944-28.501-12.944-28.501-.58-5.378-3.052-8.144-.58-7.432-.58-7.432-3.053-35.172.146-39.385c3.2-4.212 25.288-2.326 28.621 10.325"/><path fill="#000" d="M219.992 295.361s-9.165 3.059-11.618 7.418c-2.452 4.359 11.618-7.418 11.618-7.418m-4.659-9.592c-.287.433-12.544 12.731-11.778 15.703.767 2.973 11.778-15.703 11.778-15.703m-67.319 8.725s-13.67 6.445-14.837 9.251 14.837-9.251 14.837-9.251m-.873 8.285s-12.337 5.232-13.997 6.545c-1.659 1.313 13.997-6.545 13.997-6.545m-5.672 11.197s-5.466 4.073-8.478.874c-3.013-3.2 8.478-.874 8.478-.874m20.502-106.15c-.293.44-18.469 33.153-23.268 35.626s23.268-35.626 23.268-35.626m-.873 12.364c0 .727-17.743 38.658-20.662 39.112-2.92.453 20.662-39.112 20.662-39.112m-67.472 24.428s-8.558 18.296-11.89 19.369 11.89-19.369 11.89-19.369m-1.453-8.145s-2.953 6.399-4.746 6.399 4.746-6.399 4.746-6.399m32.28-124.033a25 25 0 0 0 1.593 8.805 23.757 23.757 0 0 1 24.814-24.408c1.22.053 2.666.34 3.16 1.447.193.594.295 1.214.299 1.839.367 2.826 3.233 4.592 5.926 5.512s5.692 1.507 7.645 3.579c1.786 1.9 2.293 4.626 3.172 7.086a10.2 10.2 0 0 0 2.453 3.999 25.17 25.17 0 0 0-2.413-20.951 25.158 25.158 0 0 0-37.814-6.057 25.16 25.16 0 0 0-8.835 19.149" opacity=".1"/><path fill="#603556" d="M171.436 89.665c-2.067-2.806-5.732-3.779-8.918-5.192a28.29 28.29 0 0 1-15.857-19.269 9.93 9.93 0 0 0 .973 12.384c-5.792-.393-12.19-1.06-16.116-5.332-.893 3.08 1.779 6.578.32 9.431-1.253 2.453-4.666 2.666-6.872 4.332-2.353 1.747-3.133 4.913-3.279 7.839-.147 2.926.159 5.925-.707 8.725-.667 2.126-2 4.079-2.133 6.298a10.8 10.8 0 0 0 1.067 4.779 43.1 43.1 0 0 0 6.611 10.984 23.79 23.79 0 0 1 5.149-20.289 23.79 23.79 0 0 1 19.186-8.371c1.22.053 2.666.347 3.159 1.453a6 6 0 0 1 .3 1.84c.367 2.819 3.233 4.585 5.926 5.505s5.692 1.513 7.645 3.579c1.786 1.9 2.293 4.626 3.172 7.085.88 2.46 2.58 5.033 5.173 5.333.593-3.653 1.193-7.332.826-11.038-.4-3.966-3.066-6.212-3.999-9.665-1.013-3.619.906-6.971-1.626-10.41z"/><path fill="#000" d="m97.732 160.137-9.158 5.525s-2.62 8.865-4.666 9.998c0 0 18.323-10.178 32.133 13.23 0 0-.433-3.052 1.453-4.505s1.453-7.705 1.453-7.705q.764-1.488 1.333-3.06c1.267-3.166-5.565-21.482-22.548-13.483" opacity=".1"/><path fill="#DFE5EE" d="m97.412 159.55-9.164 5.526s-2.62 8.871-4.666 10.037c0 0 18.323-10.184 32.133 13.231 0 0-.433-3.053 1.46-4.506s1.453-7.711 1.453-7.711q.769-1.482 1.333-3.053c1.293-3.199-5.566-21.522-22.549-13.524"/><path fill="#000" d="M132.278 79.588c-.034-2.373-1.447-4.986-.76-7.332l.12.126c.167 2.427 1.513 4.98.64 7.206m-10.298 12.51c-.14 2.666.1 5.332-.5 7.925.22-2.033.1-4.126.207-6.178a17 17 0 0 1 .38-2.893c-.04.406-.074.766-.087 1.146m-3.133 16.77a7.2 7.2 0 0 1 .287-1.56 11.1 11.1 0 0 0 1.073 4.593 43 43 0 0 0 5.932 10.131q.119 1.31.386 2.599a43.2 43.2 0 0 1-6.611-10.984 10.8 10.8 0 0 1-1.067-4.779m29.08-33.026a75 75 0 0 1-1.699-.12 10.25 10.25 0 0 1-.967-7.512 9.82 9.82 0 0 0 2.666 7.632m-15.969 26.747a24.19 24.19 0 0 1 19.189-8.371c1.22.06 2.666.346 3.166 1.453a6.3 6.3 0 0 1 .3 1.84c.366 2.819 3.226 4.592 5.925 5.505 2.7.913 5.686 1.513 7.638 3.586 1.793 1.899 2.3 4.625 3.18 7.078s2.573 5.026 5.159 5.332l-.28 1.747c-2.593-.28-4.293-2.853-5.172-5.333-.88-2.479-1.387-5.185-3.173-7.085-1.953-2.066-4.952-2.666-7.645-3.579s-5.559-2.666-5.925-5.505a6 6 0 0 0-.3-1.84c-.52-1.106-1.94-1.4-3.16-1.453a23.68 23.68 0 0 0-24.328 19.056 24.07 24.07 0 0 1 5.426-12.431" opacity=".1"/><path fill="#3A3768" d="M287.804 157.384v26.081l-24.955-2v-24.081z"/><path fill="#000" d="M287.804 181.332v2.133l-24.955-2v-2.133z" opacity=".1"/><path fill="#3A3768" d="m295.429 185.338-38.818-2a3.796 3.796 0 0 1 3.799-3.799l31.22 2a3.8 3.8 0 0 1 3.799 3.799m47.409-20.789-134.27-3.999a4.08 4.08 0 0 1-4.086-4.086V77.148a4.09 4.09 0 0 1 1.197-2.887 4.08 4.08 0 0 1 2.889-1.192l134.27 4a4.085 4.085 0 0 1 4.086 4.078v79.316a4.085 4.085 0 0 1-4.086 4.086"/><path fill="#6C63FF" d="m343.625 158.75-136.144-3.999V83.287l136.144 3.999z"/><path fill="#fff" d="M275.553 80.78c.663 0 1.2-.53 1.2-1.186s-.537-1.186-1.2-1.186-1.199.531-1.199 1.186c0 .656.537 1.187 1.199 1.187z"/><path fill="#000" d="m287.777 162.323-24.874-.4v.846h24.874zm-45.297 24.541 34.066 2.233-7.258 10.431-37.452-3.999z" opacity=".1"/><path fill="#3A3768" d="m241.814 186.198 34.066 2.233-7.259 10.431-37.452-4z"/><path fill="#D5E1F4" d="m243.32 186.971 29.707 1.813-6.325 8.498-32.666-3.259z"/><path fill="#6C63FF" d="M588.825 467.023c23.632 0 42.791-2.939 42.791-6.565s-19.159-6.565-42.791-6.565c-23.633 0-42.791 2.939-42.791 6.565s19.158 6.565 42.791 6.565m11.484-75.164c27.461 0 49.722-3.416 49.722-7.631s-22.261-7.632-49.722-7.632-49.723 3.417-49.723 7.632 22.262 7.631 49.723 7.631" opacity=".1"/></g><defs><clipPath id="clip0"><path fill="#fff" d="M0-69h650.031v550H0z"/></clipPath></defs></svg>