<svg width="64" height="64" fill="none" xmlns="http://www.w3.org/2000/svg"><g clip-path="url(#clip0)" fill="#6C63FF"><path d="M30.933 28.8h2.133v2.133h-2.133V28.8zM30.933 33.067h2.133V38.4h-2.133v-5.333z"/><path d="M61.867 25.6l-3.98-.01a26.231 26.231 0 0 0-3.065-7.36l2.824-2.823a2.133 2.133 0 0 0 0-3.015l-6.037-6.038a2.133 2.133 0 0 0-3.015 0l-2.824 2.82a26.199 26.199 0 0 0-7.37-3.055V2.133A2.133 2.133 0 0 0 36.267 0h-8.534A2.133 2.133 0 0 0 25.6 2.133l-.01 3.98a26.231 26.231 0 0 0-7.36 3.065l-2.825-2.824a2.133 2.133 0 0 0-3.015 0l-6.036 6.037a2.133 2.133 0 0 0 0 3.015l2.82 2.824a26.199 26.199 0 0 0-3.055 7.37H2.133A2.133 2.133 0 0 0 0 27.733v8.534C0 37.445.955 38.4 2.133 38.4l3.98.01a26.231 26.231 0 0 0 3.065 7.36l-2.824 2.825a2.133 2.133 0 0 0 0 3.015l6.036 6.036a2.133 2.133 0 0 0 3.015 0l2.824-2.813A26.191 26.191 0 0 0 25.6 57.88v3.986c0 1.178.955 2.133 2.133 2.133h8.534a2.133 2.133 0 0 0 2.133-2.133l.01-3.98a26.231 26.231 0 0 0 7.36-3.065l2.823 2.824a2.133 2.133 0 0 0 3.015 0l6.036-6.036a2.133 2.133 0 0 0 0-3.015l-2.813-2.824a26.19 26.19 0 0 0 3.05-7.371h3.986A2.133 2.133 0 0 0 64 36.267v-8.534a2.133 2.133 0 0 0-2.133-2.133zm0 10.667H57.88a2.133 2.133 0 0 0-2.065 1.631 24.308 24.308 0 0 1-2.81 6.769 2.134 2.134 0 0 0 .308 2.613l2.822 2.823-6.033 6.033-2.823-2.822a2.134 2.134 0 0 0-2.614-.307 24.311 24.311 0 0 1-6.769 2.809 2.133 2.133 0 0 0-1.63 2.065v3.986h-8.534V57.88a2.133 2.133 0 0 0-1.631-2.065 24.308 24.308 0 0 1-6.769-2.81 2.118 2.118 0 0 0-2.608.307l-2.822 2.822-6.04-6.032 2.823-2.823a2.134 2.134 0 0 0 .307-2.614 24.313 24.313 0 0 1-2.809-6.769 2.133 2.133 0 0 0-2.065-1.63H2.133v-8.534H6.12a2.133 2.133 0 0 0 2.065-1.631 24.309 24.309 0 0 1 2.81-6.769 2.134 2.134 0 0 0-.308-2.613l-2.822-2.823 6.033-6.033 2.823 2.822a2.134 2.134 0 0 0 2.614.307 24.313 24.313 0 0 1 6.769-2.809 2.133 2.133 0 0 0 1.63-2.065V2.133h8.534V6.12a2.133 2.133 0 0 0 1.631 2.065 24.309 24.309 0 0 1 6.769 2.81c.838.51 1.916.384 2.613-.308l2.823-2.822 6.033 6.033-2.822 2.823a2.134 2.134 0 0 0-.307 2.614 24.311 24.311 0 0 1 2.809 6.769 2.133 2.133 0 0 0 2.065 1.63h3.986v8.534z"/><path d="M42.2 17.006L41 18.773a15.983 15.983 0 0 1 5.15 5.76h-5.617c-.589 0-1.066.478-1.066 1.067v20.534c-.687.367-1.4.682-2.134.943v-21.32l3.155-10.517c.113-.377.01-.783-.267-1.06l-7.467-7.467a1.067 1.067 0 0 0-1.508 0l-7.467 7.466c-.278.278-.38.684-.268 1.06l3.155 10.518V47.08a15.973 15.973 0 0 1-2.133-.952V29.867c0-.136-.025-.27-.075-.396l-3.578-8.944a16.285 16.285 0 0 1 2.121-1.754l-1.203-1.76a18.116 18.116 0 0 0-3.665 26.666v.054h.05c.32.373.64.738.994 1.09a18.052 18.052 0 0 0 12.828 5.31c.785 0 1.568-.05 2.347-.148A18.133 18.133 0 0 0 42.2 17.007v-.001zm-23.32 5.87c.137-.196.261-.4.407-.59l.47 1.18h-1.115l.238-.59zm-.747 17.066a15.975 15.975 0 0 1-2.071-9.009h2.071v9.01zM16.51 28.8l1.28-3.2h2.822l1.28 3.2h-5.382zm5.89 15.98a16.005 16.005 0 0 1-1.712-1.467c-.15-.15-.278-.32-.42-.47v-11.91H22.4V44.78zm12.8 2.9a15.5 15.5 0 0 1-1.114.19c-1.76.221-3.546.152-5.285-.203v-21h6.4V47.68zm-6.672-23.147l-2.789-9.296 5.127-5.126.06 6.186a2.134 2.134 0 1 0 2.134-.008l-.062-6.32 5.264 5.265-2.788 9.3h-6.946zm19.34 9.552A16 16 0 0 1 41.6 44.77v-4.237h2.133V38.4H41.6v-2.133h2.133v-2.134H41.6V32h2.133v-2.133H41.6v-3.2h5.477a16.176 16.176 0 0 1 .79 7.418zM20.932 14.765l-1.152-1.796c-.682.437-1.338.913-1.966 1.425l1.347 1.652c.566-.46 1.157-.888 1.771-1.281zM15.734 16.336a21.368 21.368 0 0 0-5.03 8.983l2.058.562a19.217 19.217 0 0 1 4.526-8.084l-1.554-1.461z"/></g><defs><clipPath id="clip0"><path fill="#fff" d="M0 0h64v64H0z"/></clipPath></defs></svg>